<svg width="32" height="32" viewBox="0 0 32 32" fill="none" xmlns="http://www.w3.org/2000/svg">
<rect width="32" height="32" rx="16" fill="#FF4E9F"/>
<g clip-path="url(#clip0_634_621)">
<path d="M19.4246 8.19531C19.5602 8.32217 19.6869 8.45492 19.8044 8.59062L19.7803 8.56112C19.6688 8.43132 19.5482 8.31037 19.4246 8.19531ZM11.0981 9.8621L5.75612 16.0071C3.98652 18.0426 4.23975 21.1078 6.31987 22.8424C7.2122 23.5888 8.35175 23.9988 9.52746 23.9988C10.9835 23.9988 12.3582 23.3764 13.3018 22.2937L15.81 19.4115L14.0253 17.3641L11.2368 20.5709C10.8087 21.0606 10.1877 21.3438 9.52746 21.3438C9.15364 21.3438 8.59593 21.2523 8.07741 20.8216C7.6222 20.4411 7.34485 19.91 7.29661 19.3259C7.24838 18.7418 7.43529 18.1754 7.82418 17.7299L11.2187 13.827C11.0559 13.4759 10.9323 13.1072 10.8569 12.7296C10.8328 12.6027 10.8117 12.4759 10.7936 12.349C10.7846 12.29 10.7785 12.231 10.7725 12.172C10.7725 12.1514 10.7695 12.1278 10.7665 12.1042C10.7635 12.0452 10.7574 11.9832 10.7574 11.9213C10.7514 11.7826 10.7514 11.6439 10.7574 11.5023C10.7574 11.4345 10.7635 11.3637 10.7695 11.2929C10.7725 11.2368 10.7785 11.1808 10.7846 11.1247C10.7876 11.1188 10.7876 11.1129 10.7876 11.107C10.7966 11.0421 10.8057 10.9772 10.8147 10.9153C10.869 10.5524 10.9655 10.2014 11.0981 9.8621ZM14.6524 9.9565C14.6222 9.97715 14.5951 10.0008 14.568 10.0244C14.5981 10.0008 14.6253 9.97715 14.6524 9.9565ZM14.568 10.0244C14.568 10.0244 14.5589 10.0303 14.5559 10.0332C14.5408 10.045 14.5258 10.0568 14.5137 10.0716C14.5318 10.0539 14.5499 10.0391 14.568 10.0244ZM17.667 10.2338C17.6851 10.2515 17.7032 10.2722 17.7213 10.2928L17.7153 10.284C17.7002 10.2663 17.6851 10.2515 17.667 10.2338ZM14.3479 10.2338C14.3298 10.2515 14.3147 10.2663 14.2997 10.284L14.2936 10.2928C14.3117 10.2722 14.3298 10.2545 14.3479 10.2338ZM17.7213 10.2928L17.7665 10.3459C17.7515 10.3282 17.7364 10.3105 17.7213 10.2928ZM14.2906 10.2928C14.2756 10.3105 14.2605 10.3282 14.2454 10.3459L14.2906 10.2928ZM20.953 11.5023C20.953 11.5171 20.953 11.5348 20.953 11.5495C20.953 11.5318 20.953 11.5171 20.953 11.5023ZM20.956 11.5495C20.9621 11.6823 20.956 11.815 20.956 11.9478C20.9621 11.8681 20.9651 11.7855 20.9651 11.7059C20.9651 11.6528 20.9621 11.6026 20.959 11.5495H20.956Z" fill="white"/>
<path d="M15.9988 6.84375C15.9265 6.84375 15.8511 6.8467 15.7788 6.84965C15.7094 6.8526 15.6401 6.85555 15.5677 6.8644C15.5677 6.8644 15.5647 6.8644 15.5617 6.8644C15.5587 6.8644 15.5527 6.8644 15.5496 6.8644C15.4954 6.86735 15.4381 6.8762 15.3808 6.88505C15.3507 6.88505 15.3205 6.888 15.2904 6.89685C15.2421 6.89685 15.1969 6.90865 15.1487 6.9175C14.9256 6.9529 14.7055 7.006 14.4915 7.07386C14.4312 7.09156 14.3739 7.11221 14.3136 7.13286C14.2986 7.13876 14.2835 7.14466 14.2684 7.15056C14.2141 7.16826 14.1569 7.19186 14.1026 7.21251C14.0092 7.25086 13.9187 7.29216 13.8283 7.33346C13.7167 7.38656 13.6112 7.44261 13.5057 7.50457C13.4424 7.53997 13.3791 7.57537 13.3188 7.61667C13.2585 7.65502 13.1982 7.69337 13.1379 7.73467C13.0776 7.77597 13.0203 7.82022 12.96 7.86447C12.9028 7.90873 12.8485 7.95298 12.7912 8.00018C12.7159 8.06213 12.6435 8.12703 12.5712 8.19488L12.4234 8.33944C11.6336 9.14185 11.1573 10.1773 11.0638 11.3043C10.9975 12.089 11.1271 12.8589 11.4286 13.567C11.4708 13.6643 11.519 13.7646 11.5673 13.859C11.7451 14.2071 11.9652 14.5316 12.2275 14.8355L14.0212 16.8946L14.2172 17.1218L15.9988 19.1721L16.0229 19.1986L16.1978 19.3992L18.706 22.2815C19.6466 23.3641 21.0243 23.9866 22.4803 23.9866C23.653 23.9866 24.7926 23.5765 25.6879 22.8302C27.7681 21.0955 28.0213 18.0304 26.2487 15.9949L20.9037 9.84987C21.4011 11.1214 21.3709 12.5521 20.7891 13.8148L24.1836 17.7177C24.5725 18.1632 24.7594 18.7296 24.7112 19.3137C24.663 19.8978 24.3856 20.4288 23.9304 20.8094C23.4119 21.2401 22.8542 21.3315 22.4803 21.3315C21.8201 21.3315 21.1961 21.0483 20.771 20.5586L17.9795 17.3489L17.8076 17.1483L17.7835 17.1218L16.0018 15.0715L15.8029 14.8473L14.2955 13.1126C13.9067 12.6672 13.7197 12.1008 13.768 11.5167C13.774 11.44 13.7831 11.3662 13.8011 11.2925C13.8644 10.9384 14.0152 10.611 14.2413 10.3337L14.2925 10.2717C14.3076 10.254 14.3227 10.2393 14.3408 10.2216C14.3649 10.1921 14.392 10.1626 14.4222 10.136C14.4493 10.1095 14.4764 10.0829 14.5066 10.0593C14.5186 10.0446 14.5337 10.0328 14.5488 10.021C14.5819 9.99442 14.6151 9.96787 14.6452 9.94427C14.6905 9.91182 14.7327 9.88232 14.7779 9.85577C14.8171 9.82922 14.8563 9.80562 14.8955 9.78497C14.9437 9.75547 14.9919 9.73187 15.0402 9.70827C15.0703 9.69352 15.1035 9.67877 15.1366 9.66697C15.1668 9.65517 15.1999 9.64042 15.2331 9.63157C15.2723 9.61682 15.3115 9.60207 15.3507 9.59322C15.4049 9.57551 15.4592 9.56371 15.5105 9.55191C15.5527 9.54306 15.5949 9.53421 15.6341 9.52831C15.6612 9.52241 15.6853 9.51946 15.7094 9.51651C15.7577 9.51061 15.8029 9.50766 15.8481 9.50471C15.8993 9.50176 15.9476 9.49881 15.9928 9.49881H16.0049C16.0501 9.49881 16.0983 9.50176 16.1496 9.50471C16.1948 9.50766 16.24 9.51061 16.2882 9.51651C16.3154 9.51651 16.3395 9.52536 16.3636 9.52831C16.4571 9.54306 16.5535 9.56371 16.656 9.59617C16.6952 9.60502 16.7314 9.61682 16.7676 9.63157C16.7977 9.64042 16.8309 9.65517 16.864 9.66697C16.8972 9.68172 16.9304 9.69647 16.9605 9.70827C17.0208 9.73777 17.0751 9.76727 17.1323 9.79972C17.1474 9.80857 17.1625 9.81742 17.1776 9.82627C17.2379 9.86167 17.2951 9.90002 17.3524 9.94427H17.3554C17.4067 9.98262 17.4549 10.021 17.5001 10.0652C17.5273 10.0859 17.5544 10.1124 17.5785 10.136C17.6087 10.1626 17.6358 10.1921 17.6599 10.2216C17.678 10.2393 17.6931 10.254 17.7081 10.2717L17.7594 10.3337C17.9855 10.611 18.1362 10.9384 18.1995 11.2925C18.2176 11.3662 18.2267 11.44 18.2327 11.5167C18.2809 12.1008 18.094 12.6672 17.7051 13.1126L16.1978 14.8473L17.9795 16.8946L19.7702 14.8355C20.0355 14.5287 20.2555 14.2012 20.4304 13.8561C20.4816 13.7587 20.5268 13.6614 20.5721 13.564C20.768 13.1038 20.8856 12.6259 20.9308 12.1421C20.9368 12.0742 20.9429 12.0034 20.9459 11.9356C20.9519 11.7881 20.9549 11.6376 20.9459 11.4901V11.4842C20.9459 11.4016 20.9368 11.319 20.9278 11.2364C20.9278 11.1892 20.9187 11.142 20.9127 11.0948C20.8946 10.9502 20.8645 10.8057 20.8343 10.6611C20.8132 10.5667 20.7891 10.4723 20.765 10.3809C20.5781 9.73187 20.2555 9.1153 19.7973 8.57839C19.6797 8.44269 19.5531 8.30993 19.4174 8.18308C19.2336 8.00903 19.0346 7.85267 18.8266 7.71107C18.7783 7.67862 18.7301 7.64617 18.6819 7.61667C18.6216 7.57537 18.5583 7.53997 18.495 7.50457C18.3683 7.43081 18.2417 7.36296 18.1091 7.30396C18.0428 7.27446 17.9764 7.24496 17.9101 7.21841C17.8438 7.19186 17.7775 7.16531 17.7081 7.14171C17.6418 7.11516 17.5725 7.09451 17.5031 7.07386C17.2951 7.006 17.0811 6.95585 16.861 6.92045C16.8068 6.90865 16.7525 6.8998 16.6952 6.8939C16.6711 6.888 16.65 6.88505 16.6229 6.88505C16.5656 6.8762 16.5053 6.86735 16.445 6.8644C16.445 6.8644 16.442 6.8644 16.439 6.8644C16.439 6.8644 16.436 6.8644 16.4329 6.8644C16.3636 6.85555 16.2943 6.8526 16.2219 6.84965C16.1496 6.8467 16.0742 6.84375 15.9988 6.84375Z" fill="white"/>
</g>
<defs>
<clipPath id="clip0_634_621">
<rect width="22.8571" height="17.1429" fill="white" transform="translate(4.57812 6.85938)"/>
</clipPath>
</defs>
</svg>
