<svg width="72" height="16" viewBox="0 0 72 16" fill="none" xmlns="http://www.w3.org/2000/svg">
<g clip-path="url(#clip0_293_6435)">
<path d="M11.9422 2.05908C12.0513 2.16329 12.1531 2.27233 12.2477 2.38381L12.2283 2.35957C12.1386 2.25295 12.0416 2.15359 11.9422 2.05908ZM5.24491 3.42826L0.948176 8.47605C-0.475177 10.1481 -0.271495 12.666 1.40161 14.0909C2.11935 14.704 3.03592 15.0408 3.98159 15.0408C5.15277 15.0408 6.25847 14.5295 7.01743 13.6402L9.03486 11.2726L7.59938 9.59078L5.35645 12.2249C5.01213 12.6272 4.51262 12.8599 3.98159 12.8599C3.68092 12.8599 3.23233 12.7847 2.81527 12.4309C2.44912 12.1183 2.22604 11.6821 2.18725 11.2023C2.14845 10.7225 2.29879 10.2572 2.61158 9.89128L5.3419 6.68521C5.21096 6.39684 5.11155 6.09392 5.05093 5.78374C5.03153 5.67953 5.01455 5.57533 5 5.47113C4.99273 5.42266 4.98788 5.37419 4.98303 5.32573C4.98303 5.30876 4.98061 5.28938 4.97818 5.26999C4.97576 5.22152 4.97091 5.17063 4.97091 5.11974C4.96606 5.00585 4.96606 4.89195 4.97091 4.77563C4.97091 4.7199 4.97576 4.66174 4.98061 4.60358C4.98303 4.55753 4.98788 4.51149 4.99273 4.46545C4.99515 4.4606 4.99516 4.45575 4.99516 4.45091C5.00243 4.39759 5.0097 4.34428 5.01698 4.29339C5.06062 3.99532 5.13822 3.70694 5.24491 3.42826ZM8.10374 3.50581C8.07949 3.52277 8.05767 3.54216 8.03584 3.56155C8.06009 3.54216 8.08192 3.52277 8.10374 3.50581ZM8.03584 3.56155C8.03584 3.56155 8.02857 3.56639 8.02615 3.56882C8.01402 3.57851 8.0019 3.5882 7.9922 3.60032C8.00675 3.58578 8.0213 3.57366 8.03584 3.56155ZM10.5285 3.7336C10.5431 3.74814 10.5576 3.7651 10.5722 3.78207L10.5673 3.7748C10.5552 3.76026 10.5431 3.74814 10.5285 3.7336ZM7.85884 3.7336C7.84429 3.74814 7.83216 3.76026 7.82004 3.7748L7.81519 3.78207C7.82974 3.7651 7.84429 3.75056 7.85884 3.7336ZM10.5722 3.78207L10.6086 3.82569C10.5964 3.81115 10.5843 3.79661 10.5722 3.78207ZM7.81276 3.78207C7.80064 3.79661 7.78852 3.81115 7.77639 3.82569L7.81276 3.78207ZM13.1716 4.77563C13.1716 4.78775 13.1716 4.80229 13.1716 4.81441C13.1716 4.79987 13.1716 4.78775 13.1716 4.77563ZM13.174 4.81441C13.1788 4.92345 13.174 5.0325 13.174 5.14155C13.1788 5.07612 13.1813 5.00827 13.1813 4.94284C13.1813 4.89922 13.1788 4.85803 13.1764 4.81441H13.174Z" fill="#1D2A31"/>
<path d="M9.19243 0.958984C9.13424 0.958984 9.07362 0.961408 9.01542 0.963831C8.95965 0.966254 8.90388 0.968678 8.84569 0.975948C8.84569 0.975948 8.84326 0.975948 8.84084 0.975948C8.83841 0.975948 8.83356 0.975948 8.83114 0.975948C8.78749 0.978371 8.74142 0.985641 8.69535 0.992911C8.6711 0.992911 8.64686 0.995334 8.62261 1.0026C8.58381 1.0026 8.54744 1.0123 8.50864 1.01957C8.32921 1.04865 8.1522 1.09227 7.98004 1.148C7.93154 1.16254 7.88547 1.17951 7.83697 1.19647C7.82485 1.20132 7.81273 1.20616 7.8006 1.21101C7.75696 1.22555 7.71089 1.24494 7.66724 1.2619C7.59207 1.2934 7.51933 1.32733 7.44658 1.36126C7.35687 1.40488 7.272 1.45092 7.18713 1.50181C7.13621 1.53089 7.08529 1.55997 7.03679 1.5939C6.9883 1.6254 6.9398 1.6569 6.89131 1.69083C6.84281 1.72476 6.79674 1.76111 6.74824 1.79746C6.70217 1.83381 6.65853 1.87016 6.61245 1.90893C6.55183 1.95982 6.49364 2.01313 6.43544 2.06887L6.31663 2.18761C5.68133 2.84676 5.29822 3.69734 5.22305 4.62306C5.1697 5.26766 5.27397 5.90015 5.51645 6.48175C5.5504 6.56172 5.58919 6.64411 5.62799 6.72166C5.77105 7.00761 5.94806 7.27418 6.15902 7.52378L7.60177 9.21526L7.75938 9.40186L9.19243 11.0861L9.21183 11.1079L9.35247 11.2727L11.3699 13.6403C12.1264 14.5296 13.2346 15.0409 14.4057 15.0409C15.349 15.0409 16.2656 14.7041 16.9857 14.091C18.6588 12.6661 18.8625 10.1482 17.4367 8.47615L13.1376 3.42835C13.5377 4.47281 13.5134 5.64812 13.0454 6.68531L15.7757 9.89137C16.0885 10.2573 16.2389 10.7226 16.2001 11.2024C16.1613 11.6822 15.9382 12.1184 15.5721 12.431C15.155 12.7848 14.7064 12.8599 14.4057 12.8599C13.8747 12.8599 13.3728 12.6273 13.0309 12.225L10.7855 9.58845L10.6473 9.42367L10.6279 9.40186L9.19486 7.71764L9.03482 7.53347L7.82243 6.10856C7.50963 5.74263 7.35929 5.27735 7.39809 4.79754C7.40294 4.73453 7.41021 4.67395 7.42476 4.61336C7.47568 4.32256 7.59692 4.05357 7.77878 3.82578L7.82 3.77489C7.83213 3.76035 7.84425 3.74823 7.8588 3.73369C7.8782 3.70946 7.90002 3.68523 7.92427 3.66342C7.94609 3.64161 7.96791 3.6198 7.99216 3.60041C8.00186 3.58829 8.01398 3.5786 8.02611 3.56891C8.05278 3.5471 8.07945 3.52529 8.1037 3.5059C8.14007 3.47925 8.17402 3.45501 8.21039 3.4332C8.24192 3.41139 8.27344 3.39201 8.30496 3.37504C8.34376 3.35081 8.38255 3.33142 8.42135 3.31204C8.4456 3.29992 8.47227 3.2878 8.49894 3.27811C8.52319 3.26842 8.54986 3.2563 8.57654 3.24903C8.60806 3.23691 8.63958 3.2248 8.6711 3.21753C8.71475 3.20299 8.7584 3.19329 8.79962 3.1836C8.83356 3.17633 8.86751 3.16906 8.89903 3.16421C8.92086 3.15937 8.94026 3.15694 8.95965 3.15452C8.99845 3.14967 9.03482 3.14725 9.07119 3.14483C9.11242 3.1424 9.15121 3.13998 9.18758 3.13998H9.19728C9.23366 3.13998 9.27245 3.1424 9.31367 3.14483C9.35005 3.14725 9.38642 3.14967 9.42521 3.15452C9.44704 3.15452 9.46643 3.16179 9.48583 3.16421C9.561 3.17633 9.6386 3.19329 9.72104 3.21995C9.75256 3.22722 9.78166 3.23691 9.81076 3.24903C9.835 3.2563 9.86168 3.26842 9.88835 3.27811C9.91502 3.29023 9.94169 3.30234 9.96594 3.31204C10.0144 3.33627 10.0581 3.3605 10.1042 3.38716C10.1163 3.39443 10.1284 3.4017 10.1405 3.40897C10.189 3.43805 10.2351 3.46955 10.2812 3.5059H10.2836C10.3248 3.53741 10.3636 3.56891 10.4 3.60526C10.4218 3.62222 10.4436 3.64403 10.463 3.66342C10.4873 3.68523 10.5091 3.70946 10.5285 3.73369C10.543 3.74823 10.5552 3.76035 10.5673 3.77489L10.6085 3.82578C10.7904 4.05357 10.9116 4.32256 10.9625 4.61336C10.9771 4.67395 10.9844 4.73453 10.9892 4.79754C11.028 5.27735 10.8777 5.74263 10.5649 6.10856L9.35247 7.53347L10.7855 9.21526L12.2258 7.52378C12.4392 7.27175 12.6162 7.00276 12.7569 6.71923C12.7981 6.63926 12.8345 6.55929 12.8708 6.47932C13.0285 6.10129 13.123 5.70871 13.1594 5.31128C13.1642 5.25554 13.1691 5.19738 13.1715 5.14165C13.1764 5.02048 13.1788 4.89689 13.1715 4.77573V4.77088C13.1715 4.70303 13.1642 4.63517 13.157 4.56732C13.157 4.52855 13.1497 4.48977 13.1448 4.451C13.1303 4.33226 13.106 4.21351 13.0818 4.09477C13.0648 4.01722 13.0454 3.93968 13.026 3.86455C12.8757 3.33142 12.6162 2.82495 12.2477 2.3839C12.1531 2.27243 12.0513 2.16338 11.9421 2.05918C11.7942 1.9162 11.6342 1.78776 11.4669 1.67144C11.4281 1.64479 11.3893 1.61813 11.3505 1.5939C11.302 1.55997 11.2511 1.53089 11.2002 1.50181C11.0983 1.44123 10.9965 1.38549 10.8898 1.33702C10.8364 1.31279 10.7831 1.28856 10.7298 1.26675C10.6764 1.24494 10.6231 1.22313 10.5673 1.20374C10.5139 1.18193 10.4582 1.16497 10.4024 1.148C10.2351 1.09227 10.0629 1.05107 9.88592 1.02199C9.84228 1.0123 9.79863 1.00503 9.75256 1.00018C9.73316 0.995334 9.71619 0.992911 9.69437 0.992911C9.64829 0.985641 9.5998 0.978371 9.5513 0.975948C9.5513 0.975948 9.54888 0.975948 9.54645 0.975948C9.54645 0.975948 9.54403 0.975948 9.5416 0.975948C9.48583 0.968678 9.43006 0.966254 9.37187 0.963831C9.31367 0.961408 9.25305 0.958984 9.19243 0.958984Z" fill="#1D2A31"/>
</g>
<path d="M23.6147 6.78471C23.6147 4.85573 25.0814 3.64502 27.437 3.64502C29.8926 3.64502 31.3594 4.9631 31.3594 7.18828V12.0311H29.5V9.89108C29.1186 11.3573 27.9111 12.2533 26.2518 12.2533C24.5258 12.2533 23.374 11.2795 23.374 9.81703C23.374 8.29902 24.6147 7.37711 26.6629 7.37711H29.5V7.18828C29.5 5.95536 28.7037 5.19635 27.4 5.19635C26.074 5.19635 25.4703 5.81467 25.4703 6.78471H23.6147ZM29.5 8.68038H26.7666C25.7592 8.68038 25.2259 9.02841 25.2259 9.69115C25.2259 10.3872 25.8222 10.776 26.8889 10.776C28.4074 10.776 29.5 9.99475 29.5 8.91363V8.68038Z" fill="#1D2A31"/>
<path d="M34.252 8.14352V12.0311H32.3927V3.86717H34.252V6.58478C34.5891 4.90016 35.5372 3.86717 37.1965 3.86717H37.6262V5.62214H37.0151C34.9113 5.62214 34.252 6.42928 34.252 8.14352Z" fill="#1D2A31"/>
<path d="M39.9267 7.94729C39.9267 9.6134 40.7564 10.6094 42.1305 10.6094C43.312 10.6094 43.9342 9.86146 44.1194 8.88031H45.975C45.7269 10.8167 44.3157 12.2533 42.1268 12.2533C39.7119 12.2533 38.06 10.539 38.06 7.94729C38.06 5.35556 39.7082 3.64502 42.1268 3.64502C44.3194 3.64502 45.7269 5.08158 45.975 7.01797H44.1194C43.9379 6.03681 43.3157 5.28892 42.1305 5.28892C40.7564 5.28892 39.9267 6.28118 39.9267 7.94729Z" fill="#1D2A31"/>
<path d="M46.7779 6.78471C46.7779 4.85573 48.2446 3.64502 50.6002 3.64502C53.0559 3.64502 54.5226 4.9631 54.5226 7.18828V12.0311H52.6633V9.89108C52.2818 11.3573 51.0743 12.2533 49.415 12.2533C47.6891 12.2533 46.5372 11.2795 46.5372 9.81703C46.5372 8.29902 47.7779 7.37711 49.8261 7.37711H52.6633V7.18828C52.6633 5.95536 51.8669 5.19635 50.5632 5.19635C49.2372 5.19635 48.6335 5.81467 48.6335 6.78471H46.7779ZM52.6633 8.68038H49.9298C48.9224 8.68038 48.3891 9.02841 48.3891 9.69115C48.3891 10.3872 48.9854 10.776 50.0521 10.776C51.5706 10.776 52.6633 9.99475 52.6633 8.91363V8.68038Z" fill="#1D2A31"/>
<path d="M57.4152 7.68071V12.0311H55.5559V3.86717H57.4152V6.27007C57.7856 4.60396 58.8449 3.64502 60.3672 3.64502C62.1746 3.64502 63.208 5.00753 63.208 7.37711V12.0311H61.3487V7.56223C61.3487 6.04792 60.7412 5.28521 59.5079 5.28521C58.1893 5.28521 57.4152 6.15159 57.4152 7.68071Z" fill="#1D2A31"/>
<path d="M64.2552 6.78471C64.2552 4.85573 65.7219 3.64502 68.0775 3.64502C70.5332 3.64502 71.9999 4.9631 71.9999 7.18828V12.0311H70.1406V9.89108C69.7591 11.3573 68.5516 12.2533 66.8923 12.2533C65.1664 12.2533 64.0145 11.2795 64.0145 9.81703C64.0145 8.29902 65.2552 7.37711 67.3034 7.37711H70.1406V7.18828C70.1406 5.95536 69.3442 5.19635 68.0405 5.19635C66.7145 5.19635 66.1108 5.81467 66.1108 6.78471H64.2552ZM70.1406 8.68038H67.4072C66.3997 8.68038 65.8664 9.02841 65.8664 9.69115C65.8664 10.3872 66.4627 10.776 67.5294 10.776C69.0479 10.776 70.1406 9.99475 70.1406 8.91363V8.68038Z" fill="#1D2A31"/>
<defs>
<clipPath id="clip0_293_6435">
<rect width="18.3848" height="14.082" fill="white" transform="translate(0 0.958984)"/>
</clipPath>
</defs>
</svg>
